# xmcd CD database file
#
# Track frame offsets:
#	150
#	709
#	30079
#	56242
#	97678
#	116075
#	139872
#	170939
#	195113
#	199465
#
# Disc length: 3607 seconds
#
# Revision: 0
# Processed by: cddbd v1.4PL0 Copyright (c) Steve Scherf et al.
# Submitted via: CDex 1.50
#
DISCID=810e150a
DTITLE=Present Tension - Entering the Livingroom
DYEAR=2001
DGENRE=Jazz
TTITLE0=Present - tation
TTITLE1=Voodoo Shakin'
TTITLE2=Blues on the Corner
TTITLE3=Gibraltar
TTITLE4=Freedom Jazz Dance
TTITLE5=Filthy McNasty
TTITLE6=Angel Dance
TTITLE7=Odd Philly's Fur
TTITLE8=Entering ...
TTITLE9=the Livingroom
EXTD=YEAR: 2001
EXTT0=
EXTT1=
EXTT2=
EXTT3=
EXTT4=
EXTT5=
EXTT6=
EXTT7=
EXTT8=
EXTT9=
PLAYORDER=
